<?xml version="1.0" standalone="no"?>
<!DOCTYPE svg PUBLIC "-//W3C//DTD SVG 20010904//EN"
 "http://www.w3.org/TR/2001/REC-SVG-20010904/DTD/svg10.dtd">
<svg version="1.0" xmlns="http://www.w3.org/2000/svg"
 width="769.000000pt" height="1600.000000pt" viewBox="0 0 769.000000 1600.000000"
 preserveAspectRatio="xMidYMid meet">
<metadata>
Created by potrace 1.15, written by Peter Selinger 2001-2017
</metadata>
<g transform="translate(0.000000,1600.000000) scale(0.100000,-0.100000)"
fill="#000000" stroke="none">
<path d="M0 15130 l0 -870 229 0 c174 0 231 -3 235 -12 5 -10 7 -10 12 0 3 6
10 12 15 12 6 0 7 -4 4 -10 -3 -5 1 -10 9 -10 8 0 18 5 21 10 4 6 142 10 383
9 244 0 370 -4 357 -10 -14 -6 -3 -7 35 -3 30 3 98 5 150 4 52 -1 102 -1 110
1 8 1 278 3 599 5 388 3 588 1 595 -6 13 -13 39 -13 31 0 -3 6 -2 10 4 10 5 0
12 -6 15 -12 5 -10 7 -10 12 0 4 9 91 12 385 12 285 0 378 -3 373 -12 -5 -8 3
-9 32 -3 52 10 207 8 249 -4 27 -7 33 -6 28 5 -4 12 82 14 576 14 458 0 581
-3 581 -12 0 -9 15 -12 51 -9 35 2 47 6 38 12 -8 5 146 8 371 8 212 -1 374 -5
360 -9 -21 -7 -18 -8 18 -9 24 -1 51 3 60 8 9 4 67 5 127 2 61 -4 112 -3 114
2 1 4 285 8 630 7 344 -1 683 -1 754 -1 l127 1 0 870 0 870 -3845 0 -3845 0 0
-870z m3920 -76 c99 -54 146 -144 138 -267 -3 -40 -12 -87 -22 -105 -49 -94
-164 -159 -266 -148 -185 18 -297 183 -246 361 22 75 100 156 172 179 72 23
159 15 224 -20z m-672 -106 c17 -17 15 -64 -4 -82 -8 -9 -29 -16 -45 -16 -19
0 -32 -6 -36 -17 -21 -63 -59 -136 -77 -149 -52 -36 -126 -2 -126 58 0 65 54
118 120 118 23 0 30 -4 30 -20 0 -13 -7 -20 -20 -20 -55 0 -100 -52 -80 -91
22 -41 58 -16 94 65 50 111 51 118 33 131 -9 7 -17 17 -17 24 0 15 112 15 128
-1z m4044 -10 c2 -19 9 -23 38 -23 27 0 37 -6 49 -27 14 -24 14 -28 -2 -46
-22 -24 -22 -38 0 -51 14 -8 16 -14 7 -38 -7 -22 -16 -28 -39 -30 -17 0 -36
-2 -42 -2 -7 -1 -13 -12 -13 -26 0 -22 -4 -25 -38 -25 -33 0 -39 4 -49 30 -10
27 -15 29 -42 24 -26 -6 -32 -3 -43 21 -9 20 -9 31 0 46 16 25 15 44 -2 58
-12 10 -12 16 1 42 13 26 18 29 48 23 31 -5 35 -3 41 20 5 22 12 26 44 26 32
0 39 -4 42 -22z m-3012 -67 c0 -11 4 -22 8 -25 16 -9 51 6 57 25 8 24 35 25
35 1 0 -10 5 -23 11 -29 13 -13 4 -33 -16 -33 -12 0 -35 -28 -35 -43 0 -3 10
-7 22 -11 32 -8 9 -29 -28 -24 -30 3 -33 13 -23 63 3 16 -1 19 -21 17 -37 -4
-69 -52 -35 -52 8 0 15 -7 15 -15 0 -10 -11 -15 -35 -15 -37 0 -43 12 -26 55
5 11 4 25 -1 32 -12 15 -2 33 17 33 7 0 17 9 20 20 8 26 35 26 35 1z"/>
<path d="M3703 14996 c-26 -12 -31 -46 -7 -46 12 0 15 -8 12 -34 -2 -22 0 -32
7 -29 7 2 11 -6 11 -19 -1 -20 3 -23 29 -20 23 2 26 0 15 -8 -8 -5 -23 -10
-33 -10 -14 0 -16 -5 -11 -27 8 -34 15 -42 21 -25 3 6 14 12 26 12 18 0 19 -2
7 -10 -24 -15 -6 -20 28 -8 30 12 57 4 35 -10 -14 -9 -4 -74 11 -69 6 2 10 14
9 26 -2 11 0 21 3 21 9 0 34 -28 34 -39 0 -16 -41 -35 -78 -36 -18 0 -37 -7
-41 -14 -5 -8 -14 -10 -22 -6 -8 5 -11 5 -7 0 4 -4 3 -16 -2 -25 -7 -13 -6
-20 4 -23 18 -7 26 1 26 25 0 10 6 18 14 18 9 0 12 -7 9 -20 -6 -22 28 -43 35
-22 2 7 12 12 23 12 11 0 19 7 19 16 0 12 -7 14 -32 10 -30 -4 -29 -4 4 6 21
6 40 19 43 28 4 12 13 16 30 12 15 -2 25 0 25 7 0 6 -9 11 -20 11 -11 0 -20 7
-20 15 0 8 9 15 20 15 13 0 20 7 20 20 0 11 -4 20 -10 20 -5 0 -10 6 -10 14 0
17 -27 28 -51 21 -11 -4 -19 -2 -19 4 0 6 -9 11 -21 11 -15 0 -19 -5 -15 -15
3 -8 1 -15 -4 -15 -16 0 -22 21 -10 35 14 17 5 35 -18 35 -9 0 -26 7 -37 16
-16 12 -18 18 -7 34 10 16 10 20 0 20 -8 1 -6 6 5 14 9 7 17 19 17 26 0 9 -3
10 -14 1 -11 -9 -12 -6 -8 14 5 27 -7 30 -45 11z"/>
<path d="M5657 13402 c-9 -15 -4 -163 5 -168 5 -3 29 15 54 40 24 25 47 46 51
46 4 0 31 -23 60 -52 l53 -52 0 96 0 97 -35 -15 c-44 -18 -106 -18 -150 0 -19
8 -36 12 -38 8z"/>
<path d="M5885 12978 c-28 -24 -35 -37 -31 -54 4 -13 1 -24 -6 -26 -17 -6 -2
-70 27 -113 23 -33 24 -38 11 -57 -20 -29 -10 -46 35 -58 47 -13 114 2 123 27
4 9 -1 24 -10 34 -15 17 -16 21 -2 37 9 9 23 31 32 49 64 128 -75 253 -179
161z"/>
<path d="M6612 12842 c-69 -22 -116 -68 -154 -148 -35 -76 -34 -122 6 -208 29
-63 63 -98 129 -131 49 -24 57 -25 246 -25 173 0 201 3 239 20 61 28 120 91
148 160 30 73 30 97 3 172 -28 75 -97 141 -172 163 -74 22 -372 20 -445 -3z
m332 -114 c-1 -10 9 -18 28 -22 24 -5 28 -9 23 -31 -3 -14 -7 -36 -10 -50 -6
-30 -40 -67 -82 -89 -18 -9 -33 -20 -33 -25 0 -11 25 -21 51 -21 14 0 19 -7
19 -25 l0 -26 -97 3 c-84 3 -98 5 -101 21 -4 17 2 21 51 31 35 8 34 21 -3 36
-16 7 -30 16 -30 20 0 3 -11 12 -24 20 -18 9 -28 28 -39 72 l-15 59 28 6 c16
3 30 13 33 24 5 18 14 20 104 17 84 -3 98 -5 97 -20z"/>
<path d="M5534 12801 c-80 -49 -101 -126 -59 -218 14 -32 36 -69 48 -82 l22
-23 -22 -15 c-35 -24 -29 -51 14 -70 48 -20 135 -13 163 12 25 23 25 30 0 53
-20 19 -20 20 -3 53 10 19 21 36 26 37 16 8 37 76 37 122 0 113 -131 189 -226
131z"/>
<path d="M5889 12128 c-37 -41 -50 -64 -63 -115 -8 -35 -25 -77 -36 -93 -25
-36 -11 -48 19 -16 l23 24 41 -19 c23 -10 53 -19 68 -19 14 0 30 -5 37 -12 16
-16 15 -87 -3 -118 -17 -29 -19 -76 -5 -85 6 -3 10 3 10 13 0 11 10 41 21 68
19 42 20 53 10 93 -24 90 -25 101 -7 101 26 0 66 46 66 76 0 33 -35 83 -66 94
-17 7 -24 17 -24 35 0 42 -37 32 -91 -27z m71 -3 c0 -18 5 -25 20 -25 30 0 61
-40 58 -74 -2 -23 -12 -35 -43 -51 -46 -24 -95 -19 -128 14 -18 18 -19 23 -6
53 13 33 77 108 92 108 4 0 7 -11 7 -25z"/>
<path d="M5554 11951 c-17 -10 -40 -31 -52 -46 -25 -31 -46 -100 -38 -122 9
-23 23 -6 29 35 2 22 13 51 22 66 19 28 95 74 95 57 0 -5 -8 -12 -19 -16 -43
-13 -91 -83 -91 -132 0 -59 33 -118 78 -142 30 -16 36 -10 37 37 2 64 30 107
91 139 30 15 54 34 54 41 0 18 -9 15 -68 -19 -58 -33 -89 -74 -98 -131 -8 -46
-16 -47 -43 -9 -15 20 -21 45 -21 81 0 46 4 56 34 86 19 19 41 34 50 34 22 0
38 34 24 48 -17 17 -49 15 -84 -7z"/>
<path d="M5470 11735 c0 -24 35 -87 62 -112 12 -12 50 -33 82 -47 55 -24 70
-26 170 -24 106 3 111 4 114 25 2 14 -4 27 -16 34 -11 7 -18 19 -15 26 9 22
21 14 33 -22 16 -50 36 -65 81 -65 52 0 59 20 23 64 -35 41 -44 44 -44 13 0
-15 9 -28 23 -35 20 -11 19 -11 -13 -9 -34 2 -36 4 -61 76 -30 86 -49 103 -49
42 0 -46 -26 -71 -72 -71 -18 0 -28 -5 -28 -15 0 -12 13 -15 55 -15 30 0 55
-4 55 -10 0 -6 -39 -10 -97 -10 -153 0 -236 39 -268 125 -18 44 -35 60 -35 30z"/>
<path d="M5070 10871 c-36 -86 -41 -91 -120 -91 -25 0 -55 -3 -68 -6 -21 -6
-18 -11 42 -68 l66 -61 -19 -80 c-11 -44 -18 -81 -16 -83 2 -2 34 15 72 37 38
23 74 41 81 41 6 0 41 -18 78 -41 36 -22 68 -38 70 -36 2 2 -5 40 -15 83 l-20
79 66 61 65 61 -32 7 c-18 3 -47 6 -66 6 -60 0 -77 13 -108 86 -16 38 -32 73
-36 77 -4 4 -22 -28 -40 -72z m60 -86 c19 -44 20 -45 65 -45 25 0 45 -2 45 -5
0 -3 -15 -19 -34 -35 -32 -28 -33 -32 -25 -72 4 -24 8 -46 9 -51 0 -8 -37 11
-58 31 -18 16 -20 16 -69 -13 -24 -13 -43 -21 -43 -17 0 4 5 25 10 47 9 38 7
42 -27 78 l-37 37 48 0 c46 0 47 1 67 45 11 25 22 45 25 45 3 0 13 -20 24 -45z"/>
<path d="M2564 10873 c-15 -38 -31 -72 -35 -77 -4 -5 -42 -12 -84 -16 -41 -4
-78 -10 -81 -13 -6 -5 13 -24 94 -94 l25 -22 -17 -75 c-10 -41 -16 -80 -15
-85 2 -6 33 7 69 29 36 21 72 39 80 40 8 0 44 -18 79 -41 35 -22 65 -38 68
-35 2 2 -4 41 -13 86 l-18 83 30 26 c16 14 45 39 63 54 18 15 31 30 28 33 -3
4 -40 10 -82 15 -41 4 -79 10 -83 13 -5 3 -21 37 -36 75 -15 39 -31 71 -36 71
-4 0 -20 -30 -36 -67z"/>
<path d="M3197 10887 c-14 -30 -28 -64 -32 -75 -4 -16 -17 -22 -51 -26 -24 -4
-65 -9 -91 -12 l-48 -6 31 -26 c16 -15 46 -41 67 -59 l37 -32 -19 -83 c-11
-46 -18 -84 -16 -87 2 -2 33 15 69 38 36 22 72 41 81 41 9 0 45 -19 81 -41 36
-23 67 -39 70 -37 2 3 -5 41 -15 84 l-20 79 66 61 c61 57 64 61 42 67 -13 4
-44 7 -69 7 -66 0 -89 17 -117 85 -14 33 -29 64 -33 69 -5 5 -20 -15 -33 -47z"/>
<path d="M3816 10870 c-16 -39 -37 -75 -47 -80 -10 -6 -42 -10 -71 -11 -96 -1
-98 -8 -25 -72 l64 -56 -19 -82 c-11 -44 -17 -83 -15 -85 2 -3 34 14 70 36 71
43 91 48 116 27 9 -8 37 -26 64 -41 46 -26 47 -26 47 -6 0 11 -7 50 -16 86
l-17 66 43 36 c24 21 55 47 69 59 l26 21 -48 6 c-26 3 -67 8 -91 11 -43 6 -44
6 -74 78 -16 39 -34 73 -38 74 -5 2 -22 -29 -38 -67z"/>
<path d="M4444 10873 c-15 -38 -31 -72 -35 -77 -4 -5 -42 -12 -84 -16 -41 -4
-78 -10 -82 -13 -3 -4 9 -19 28 -34 18 -15 46 -40 62 -54 l29 -27 -16 -70 c-9
-39 -16 -78 -16 -87 0 -17 6 -15 102 45 l46 28 73 -44 c39 -25 74 -42 77 -40
2 3 -4 42 -15 86 l-20 82 63 51 c34 29 63 55 63 58 1 10 -39 19 -84 19 -70 0
-85 9 -106 59 -39 91 -44 101 -50 101 -4 0 -19 -30 -35 -67z m55 -80 c17 -46
26 -53 74 -53 45 0 47 -11 5 -43 -31 -25 -31 -26 -21 -76 6 -28 8 -51 6 -51
-2 0 -21 12 -42 26 l-39 25 -42 -26 c-23 -15 -43 -25 -45 -23 -2 2 1 23 6 47
10 43 9 45 -27 82 l-37 38 49 3 c47 3 50 5 69 46 11 23 22 42 25 42 3 0 12
-17 19 -37z"/>
<path d="M3440 9685 l0 -225 40 0 40 0 0 225 0 225 -40 0 -40 0 0 -225z"/>
<path d="M1940 9681 c0 -242 -13 -220 126 -211 68 4 86 9 117 33 47 36 68 76
74 146 7 74 -11 134 -52 180 -42 46 -88 61 -189 61 l-76 0 0 -209z m202 102
c20 -21 23 -35 23 -97 0 -106 -29 -146 -105 -146 l-30 0 0 134 c0 90 4 136 11
138 27 9 79 -6 101 -29z"/>
<path d="M3740 9680 l0 -210 140 0 140 0 0 35 0 35 -95 0 -95 0 0 55 0 55 80
0 80 0 0 35 0 35 -80 0 -80 0 0 50 0 50 95 0 95 0 0 35 0 35 -140 0 -140 0 0
-210z"/>
<path d="M2385 9775 c-22 -8 -41 -15 -42 -15 -4 0 -33 -58 -33 -65 0 -3 20 -5
44 -5 30 0 46 5 50 15 11 31 76 14 76 -20 0 -20 -6 -23 -54 -28 -70 -7 -94
-21 -112 -64 -29 -69 18 -133 98 -133 19 0 44 7 56 16 12 8 22 10 22 5 0 -6
19 -11 43 -11 l42 0 -6 122 c-3 68 -9 131 -13 141 -19 42 -110 64 -171 42z"/>
<path d="M2745 9774 c-19 -10 -31 -11 -33 -5 -2 6 -21 11 -43 11 l-39 0 0
-155 0 -155 40 0 40 0 0 110 c0 106 1 110 25 126 21 14 31 15 50 6 24 -11 25
-14 25 -127 l0 -115 45 0 45 0 0 115 c0 78 -5 127 -15 150 -22 53 -82 70 -140
39z"/>
<path d="M3180 9772 c-51 -28 -73 -73 -74 -146 -1 -74 23 -123 74 -148 60 -31
152 -19 188 24 8 10 6 19 -7 37 -18 23 -19 23 -42 7 -32 -22 -81 -20 -107 4
-12 12 -22 25 -22 30 0 6 41 10 94 10 55 0 98 4 101 10 4 6 4 34 0 62 -10 73
-53 117 -120 124 -38 4 -58 1 -85 -14z"/>
<path d="M4130 9783 c-38 -14 -70 -57 -70 -93 0 -47 21 -66 102 -94 49 -17 64
-27 66 -44 6 -40 -80 -42 -93 -1 -5 14 -15 19 -46 19 -43 0 -46 -7 -24 -50 20
-39 63 -60 122 -60 62 0 94 17 116 61 33 68 0 109 -111 139 -49 13 -64 36 -37
56 21 16 56 9 68 -12 5 -9 25 -14 53 -14 l44 0 -13 31 c-21 53 -114 85 -177
62z"/>
<path d="M4414 9771 c-78 -47 -85 -211 -13 -284 25 -25 35 -28 72 -25 23 3 50
8 60 12 15 7 17 1 17 -60 l0 -69 37 2 c21 1 40 2 43 2 3 1 5 98 5 216 l0 215
-37 0 c-20 0 -38 -5 -40 -11 -2 -6 -14 -5 -33 5 -40 21 -73 20 -111 -3z m117
-61 c16 -9 19 -22 19 -83 0 -78 -9 -97 -47 -97 -40 0 -63 34 -63 93 0 78 39
115 91 87z"/>
<path d="M5295 9775 c-19 -10 -31 -12 -33 -6 -2 6 -21 11 -43 11 l-39 0 0
-155 0 -155 45 0 45 0 0 115 c0 106 2 115 21 125 11 7 31 9 44 6 30 -8 38 -43
33 -159 l-3 -87 43 0 44 0 -4 135 c-3 121 -5 137 -24 156 -28 28 -91 35 -129
14z"/>
<path d="M5590 9780 c-36 -9 -80 -50 -80 -76 0 -20 78 -20 86 1 7 18 55 20 72
3 7 -7 12 -20 12 -30 0 -14 -8 -18 -33 -18 -87 0 -147 -41 -147 -101 0 -77 85
-123 158 -85 18 9 32 12 32 6 0 -5 19 -10 41 -10 l41 0 -4 125 c-4 114 -6 126
-28 150 -13 14 -40 29 -59 35 -40 11 -43 11 -91 0z"/>
<path d="M2960 9625 l0 -155 45 0 45 0 0 155 0 155 -45 0 -45 0 0 -155z"/>
<path d="M4700 9649 l0 -131 29 -29 c32 -32 79 -38 125 -18 18 8 29 9 38 2 7
-6 27 -10 43 -9 l30 1 3 158 3 157 -46 0 -45 0 0 -113 c0 -123 -5 -137 -52
-137 -40 0 -48 25 -48 144 l0 106 -40 0 -40 0 0 -131z"/>
<path d="M5030 9625 l0 -155 45 0 45 0 0 155 0 155 -45 0 -45 0 0 -155z"/>
<path d="M285 8735 c-46 -45 -29 -130 42 -214 l29 -34 23 24 c12 13 36 52 53
86 27 56 29 65 18 97 -15 46 -44 66 -98 66 -32 0 -49 -6 -67 -25z"/>
<path d="M537 8753 c-4 -3 -7 -69 -7 -145 l0 -138 94 0 93 0 -5 25 c-4 23 -8
25 -63 25 l-59 0 0 120 c0 119 0 120 -23 120 -13 0 -27 -3 -30 -7z"/>
<path d="M740 8615 l0 -145 30 0 30 0 0 145 0 145 -30 0 -30 0 0 -145z"/>
<path d="M1280 8716 l0 -45 -35 6 c-68 11 -111 -64 -86 -148 6 -21 20 -43 31
-49 26 -14 73 -13 88 2 9 9 12 9 12 0 0 -7 11 -12 25 -12 l25 0 0 145 0 145
-30 0 c-29 0 -30 -2 -30 -44z"/>
<path d="M869 8651 c-23 -23 -29 -38 -29 -71 0 -46 21 -94 45 -104 26 -10 94
-7 116 4 21 12 23 18 10 39 -8 12 -14 12 -39 2 -23 -10 -35 -10 -51 -1 -36 19
-23 29 42 32 l62 3 -1 39 c-3 82 -96 115 -155 57z"/>
<path d="M1406 8659 c-14 -11 -26 -27 -26 -35 0 -19 39 -18 61 2 20 18 49 12
49 -10 0 -9 -16 -16 -44 -20 -52 -8 -69 -25 -69 -68 0 -44 23 -57 106 -56 l72
0 -3 71 c-4 98 -8 112 -37 125 -39 18 -79 14 -109 -9z"/>
<path d="M5902 7370 c-23 -19 -23 -23 -27 -252 -5 -252 -3 -276 26 -307 20
-21 26 -21 520 -21 l500 0 24 25 25 24 0 249 c0 237 -1 251 -21 276 l-20 26
-502 0 c-481 -1 -503 -1 -525 -20z m605 -192 c18 -18 33 -37 33 -42 0 -6 -48
-59 -107 -118 -103 -104 -109 -108 -150 -108 -43 0 -43 0 -43 37 0 35 9 47
112 150 62 62 115 113 117 113 3 0 20 -14 38 -32z"/>
<path d="M700 7150 l0 -100 54 0 c75 0 106 29 106 99 0 43 -4 53 -31 75 -24
20 -41 26 -80 26 l-49 0 0 -100z"/>
<path d="M910 7180 c-12 -12 -20 -33 -20 -55 0 -45 29 -75 73 -75 17 0 38 4
46 9 20 13 3 32 -22 26 -12 -3 -31 1 -42 9 -19 14 -17 15 33 16 44 0 52 3 52
19 0 10 -9 30 -21 45 -25 32 -70 35 -99 6z"/>
<path d="M1550 7094 c0 -97 1 -104 20 -104 16 0 20 7 20 33 0 32 2 33 30 29
17 -2 37 1 44 8 35 28 26 124 -13 133 -9 3 -35 5 -58 5 l-43 1 0 -105z"/>
<path d="M1912 7177 c-28 -29 -29 -87 -4 -110 25 -23 85 -22 105 1 24 26 22
87 -3 112 -27 27 -71 26 -98 -3z"/>
<path d="M1108 6092 c-23 -7 -38 -35 -38 -72 0 -47 28 -75 65 -66 18 5 25 2
25 -8 0 -18 -33 -30 -60 -21 -26 8 -26 -11 -1 -25 30 -16 50 -12 76 15 22 21
25 33 25 103 l0 79 -39 -1 c-22 0 -46 -2 -53 -4z"/>
<path d="M1300 6024 c0 -66 2 -75 18 -72 13 2 18 16 22 58 4 40 9 55 20 55 11
0 16 -15 20 -55 4 -42 9 -56 23 -58 14 -3 17 5 17 51 0 41 4 56 16 61 27 10
34 -3 34 -60 0 -41 4 -54 15 -54 12 0 15 14 15 65 0 60 -2 66 -25 77 -18 8
-28 8 -39 -1 -10 -9 -20 -9 -40 0 -19 9 -29 9 -40 0 -10 -8 -16 -9 -21 -1 -3
5 -13 10 -21 10 -11 0 -14 -16 -14 -76z"/>
<path d="M5903 2541 c-18 -17 -22 -36 -28 -157 -4 -75 -5 -193 -3 -261 5 -112
7 -126 28 -148 l23 -25 499 0 499 0 24 25 25 24 0 254 c0 242 -1 256 -21 281
l-20 26 -503 0 c-483 0 -503 -1 -523 -19z m616 -213 l23 -29 -77 -82 c-138
-145 -140 -147 -185 -147 -40 0 -40 0 -40 39 0 37 8 48 111 155 121 125 119
124 168 64z"/>
<path d="M1533 2433 c-9 -3 -13 -34 -13 -108 l0 -103 52 0 c60 -1 74 8 83 49
13 60 -27 109 -75 94 -17 -6 -20 -2 -20 29 0 37 -7 46 -27 39z"/>
<path d="M732 2338 c-17 -46 -33 -91 -37 -100 -6 -14 -2 -18 18 -18 17 0 28 7
32 20 5 15 15 20 42 20 26 0 36 -5 40 -20 4 -13 14 -20 30 -20 16 0 23 5 21
13 -65 174 -71 187 -93 187 -20 0 -28 -12 -53 -82z"/>
<path d="M1062 2354 c-25 -17 -30 -39 -6 -30 45 17 64 18 64 2 0 -10 -8 -16
-21 -16 -33 0 -59 -19 -59 -43 0 -35 19 -47 77 -47 l53 0 0 59 c0 51 -3 62
-22 75 -12 9 -32 16 -43 16 -11 0 -31 -7 -43 -16z"/>
<path d="M1378 2356 c-25 -18 -23 -40 2 -32 11 3 29 9 40 12 14 5 20 2 20 -10
0 -10 -9 -16 -25 -16 -24 0 -65 -31 -65 -49 0 -25 34 -41 86 -41 l54 0 0 55
c0 42 -5 60 -20 75 -23 23 -67 26 -92 6z"/>
<path d="M2038 2289 c25 -76 26 -81 9 -93 -22 -17 -22 -36 1 -36 29 0 48 28
81 119 17 47 31 86 31 88 0 2 -11 3 -23 3 -19 0 -27 -9 -37 -41 l-14 -42 -14
42 c-11 32 -19 41 -37 41 l-23 0 26 -81z"/>
<path d="M4404 1378 c20 -92 39 -164 46 -171 12 -13 26 15 39 76 7 31 16 57
20 57 4 0 13 -24 20 -52 17 -65 30 -93 41 -82 7 8 25 77 46 172 3 14 0 22 -9
22 -9 0 -18 -24 -27 -70 -7 -39 -17 -67 -21 -63 -5 5 -15 35 -22 68 -18 81
-37 79 -56 -7 -8 -38 -18 -68 -22 -68 -4 0 -11 21 -15 48 -9 60 -21 92 -34 92
-6 0 -8 -10 -6 -22z"/>
<path d="M4840 1302 l0 -98 38 4 c69 6 102 38 102 97 0 60 -39 95 -105 95
l-35 0 0 -98z"/>
<path d="M1134 1369 c-13 -14 -19 -36 -19 -66 0 -37 5 -49 28 -69 36 -31 62
-30 94 2 22 22 25 32 21 74 -3 27 -11 56 -18 65 -19 23 -83 19 -106 -6z"/>
<path d="M0 560 l0 -560 3845 0 3845 0 0 560 0 560 -3845 0 -3845 0 0 -560z
m927 308 c9 -15 15 -257 7 -270 -3 -5 -18 1 -34 12 -24 17 -44 20 -128 20 -55
0 -107 3 -116 6 -13 5 -16 25 -16 118 0 62 3 116 7 119 3 4 66 7 139 7 95 0
135 -4 141 -12z m2949 -13 c9 -13 24 -27 35 -30 30 -10 49 -58 49 -123 0 -46
4 -63 20 -77 44 -40 29 -45 -130 -45 -121 0 -150 3 -150 14 0 7 7 19 15 26 10
8 15 31 15 69 0 66 24 120 63 139 14 7 29 21 32 32 9 27 31 25 51 -5z m1664 0
c0 -21 5 -25 30 -25 25 0 30 -4 30 -24 0 -67 -51 -140 -121 -172 -52 -23 -48
-46 9 -58 30 -7 42 -15 42 -28 0 -16 -11 -18 -110 -18 -99 0 -110 2 -110 18 0
13 12 21 43 28 59 13 55 35 -12 76 -61 37 -91 83 -91 140 0 33 3 37 28 40 19
2 28 9 30 26 3 21 7 22 118 22 l114 0 0 -25z m-3249 -7 c51 -19 74 -104 45
-170 -6 -12 -4 -18 5 -18 24 -1 93 -76 86 -94 -10 -25 -21 -20 -71 34 -39 42
-50 49 -66 40 -29 -15 -89 -12 -121 7 -87 51 -66 191 31 212 36 8 45 7 91 -11z
m4688 7 c16 -8 31 -22 35 -30 31 -81 -44 -150 -116 -108 -28 16 -33 26 -36 62
-3 45 8 68 43 81 29 13 43 12 74 -5z m-6359 -148 c0 -43 5 -78 12 -85 8 -8 47
-12 111 -12 74 0 98 -3 95 -12 -3 -9 -38 -15 -106 -18 -77 -4 -106 -9 -122
-22 -11 -10 -22 -18 -25 -18 -8 0 -6 226 2 233 3 4 12 7 20 7 10 0 13 -19 13
-73z m6420 -59 c41 -15 60 -39 60 -75 l0 -33 -159 0 c-98 0 -162 4 -166 10
-13 21 6 66 35 84 58 34 160 40 230 14z m-1192 -338 c5 -72 -6 -110 -34 -120
-17 -7 -32 -6 -45 0 -30 16 -23 26 16 22 26 -3 35 0 35 11 0 9 -10 15 -25 15
-37 -1 -55 20 -55 61 0 48 16 63 65 59 40 -3 40 -3 43 -48z"/>
<path d="M2179 801 c-32 -33 -37 -65 -13 -99 51 -74 157 -27 145 63 -3 27 -50
65 -79 65 -13 0 -37 -13 -53 -29z"/>
</g>
</svg>
